<svg xmlns="http://www.w3.org/2000/svg" xmlns:xlink="http://www.w3.org/1999/xlink" width="1920" height="620"><defs><path id="A" d="M0 0h1920v620c-319.01-71.667-638.675-107.5-959-107.5S320.342 548.333 0 620V0z"/><linearGradient id="B" x1="50%" x2="50%" y1="1.928%" y2="100%"><stop offset="0%" stop-color="#12385e"/><stop offset="100%" stop-color="#002d4f" stop-opacity="0"/></linearGradient></defs><g fill-rule="evenodd"><path fill="#fff" d="M0 0h1920v620H0z"/><mask id="C" fill="#fff"><use xlink:href="#A"/></mask><use fill="#072644" xlink:href="#A"/><path fill="url(#B)" d="M1920 266.75V620H0V426.022c73.178-41.686 117.115-180.32 205.398-180.32C339.197 245.702 332.2 459 463 459c185.007 0 230.42-444.68 373.872-444.68 142.49 0 178.028 304.932 353.028 304.932 169.073 0 202.53-230.7 350.1-230.7 131.836 0 190.2 211.438 304.175 211.438 30.382 0 55.657-11.083 75.825-33.25z" mask="url(#C)" opacity=".84"/></g></svg>